<svg width="16" height="16" viewBox="0 0 16 16" fill="none" xmlns="http://www.w3.org/2000/svg">
<path fill-rule="evenodd" clip-rule="evenodd" d="M8 0C3.5816 0 0 3.5816 0 8C0 9.512 0.42 10.928 1.1504 12.1344L0.4368 14.56C0.395828 14.6993 0.393132 14.847 0.428996 14.9877C0.464859 15.1283 0.537958 15.2567 0.640607 15.3594C0.743257 15.462 0.871665 15.5351 1.01233 15.571C1.153 15.6069 1.30073 15.6042 1.44 15.5632L3.8656 14.8496C5.11259 15.604 6.54259 16.0019 8 16C12.4184 16 16 12.4184 16 8C16 3.5816 12.4184 0 8 0ZM6.1904 9.8104C7.8088 11.428 9.3536 11.6416 9.8992 11.6616C10.7288 11.692 11.5368 11.0584 11.8512 10.3232C11.8906 10.2317 11.9048 10.1313 11.8924 10.0324C11.88 9.93357 11.8415 9.8398 11.7808 9.7608C11.3424 9.2008 10.7496 8.7984 10.1704 8.3984C10.0495 8.31458 9.90087 8.28092 9.75569 8.3045C9.61051 8.32807 9.48013 8.40705 9.392 8.5248L8.912 9.2568C8.88663 9.296 8.84731 9.32409 8.80201 9.33538C8.7567 9.34667 8.70879 9.34031 8.668 9.3176C8.3424 9.1312 7.868 8.8144 7.5272 8.4736C7.1864 8.1328 6.8888 7.68 6.7216 7.3752C6.70137 7.33636 6.69566 7.29159 6.70548 7.24892C6.71531 7.20625 6.74003 7.16848 6.7752 7.1424L7.5144 6.5936C7.6202 6.50207 7.6885 6.37472 7.70621 6.23596C7.72393 6.09719 7.68981 5.95677 7.6104 5.8416C7.252 5.3168 6.8344 4.6496 6.2288 4.2072C6.15048 4.15092 6.05895 4.11583 5.96308 4.10532C5.86721 4.09481 5.77026 4.10923 5.6816 4.1472C4.9456 4.4624 4.3088 5.2704 4.3392 6.1016C4.3592 6.6472 4.5728 8.192 6.1904 9.8104Z" fill="#006A4E"/>
</svg>
