<svg width="17" height="16" viewBox="0 0 17 16" fill="none" xmlns="http://www.w3.org/2000/svg">
<path d="M3.80029 7.5H13.8003C13.9329 7.5 14.0601 7.55268 14.1538 7.64645C14.2476 7.74021 14.3003 7.86739 14.3003 8C14.3003 8.13261 14.2476 8.25979 14.1538 8.35355C14.0601 8.44732 13.9329 8.5 13.8003 8.5H3.80029C3.66768 8.5 3.54051 8.44732 3.44674 8.35355C3.35297 8.25979 3.30029 8.13261 3.30029 8C3.30029 7.86739 3.35297 7.74021 3.44674 7.64645C3.54051 7.55268 3.66768 7.5 3.80029 7.5Z" fill="#27A830"/>
<path d="M4.00733 8.00014L8.15433 12.1461C8.24822 12.24 8.30096 12.3674 8.30096 12.5001C8.30096 12.6329 8.24822 12.7603 8.15433 12.8541C8.06045 12.948 7.93311 13.0008 7.80033 13.0008C7.66756 13.0008 7.54022 12.948 7.44633 12.8541L2.94633 8.35414C2.89977 8.3077 2.86283 8.25252 2.83762 8.19178C2.81241 8.13103 2.79944 8.06591 2.79944 8.00014C2.79944 7.93438 2.81241 7.86926 2.83762 7.80851C2.86283 7.74776 2.89977 7.69259 2.94633 7.64614L7.44633 3.14614C7.54022 3.05226 7.66756 2.99951 7.80033 2.99951C7.93311 2.99951 8.06045 3.05226 8.15433 3.14614C8.24822 3.24003 8.30096 3.36737 8.30096 3.50014C8.30096 3.63292 8.24822 3.76026 8.15433 3.85414L4.00733 8.00014Z" fill="#27A830"/>
</svg>
