<svg width="30" height="24" viewBox="0 0 30 24" fill="none" xmlns="http://www.w3.org/2000/svg">
<g clip-path="url(#clip0_2013_91)">
<path d="M29.9898 11.9766C29.9898 12.8203 29.2085 13.4812 28.3231 13.4812H26.6564L26.6929 20.9906C26.6929 21.1172 26.6825 21.2437 26.6669 21.3703V22.1297C26.6669 23.1656 25.7346 24.0047 24.5835 24.0047H23.7502C23.6929 24.0047 23.6356 24.0047 23.5783 24C23.5054 24.0047 23.4325 24.0047 23.3596 24.0047L21.6669 24H20.4169C19.2658 24 18.3335 23.1609 18.3335 22.125V21V18C18.3335 17.1703 17.5887 16.5 16.6669 16.5H13.3335C12.4117 16.5 11.6669 17.1703 11.6669 18V21V22.125C11.6669 23.1609 10.7346 24 9.58353 24H8.33353H6.67207C6.59394 24 6.51582 23.9953 6.43769 23.9906C6.37519 23.9953 6.31269 24 6.25019 24H5.41686C4.26582 24 3.33353 23.1609 3.33353 22.125V16.875C3.33353 16.8328 3.33353 16.7859 3.33874 16.7437V13.4766H1.67207C0.734568 13.4766 0.00540161 12.8203 0.00540161 11.9719C0.00540161 11.55 0.161652 11.175 0.526235 10.8469L13.8752 0.375C14.2398 0.046875 14.6564 0 15.021 0C15.3856 0 15.8023 0.09375 16.1148 0.328125L29.4169 10.8516C29.8335 11.1797 30.0419 11.5547 29.9898 11.9766Z" fill="#006A4E"/>
</g>
<defs>
<clipPath id="clip0_2013_91">
<rect width="30" height="24" fill="white"/>
</clipPath>
</defs>
</svg>
