<svg width="25" height="24" viewBox="0 0 25 24" fill="none" xmlns="http://www.w3.org/2000/svg">
<g clip-path="url(#clip0_434_1379)">
<path d="M12.4341 24C19.0615 24 24.4341 18.6274 24.4341 12C24.4341 5.37258 19.0615 0 12.4341 0C5.80666 0 0.434082 5.37258 0.434082 12C0.434082 18.6274 5.80666 24 12.4341 24Z" fill="#1A232B"/>
<path d="M13.7674 5.33333C13.7674 5.68696 13.6269 6.02609 13.3769 6.27614C13.1268 6.52619 12.7877 6.66667 12.434 6.66667C12.0804 6.66667 11.7413 6.52619 11.4912 6.27614C11.2412 6.02609 11.1007 5.68696 11.1007 5.33333C11.1007 4.97971 11.2412 4.64057 11.4912 4.39052C11.7413 4.14048 12.0804 4 12.434 4C12.7877 4 13.1268 4.14048 13.3769 4.39052C13.6269 4.64057 13.7674 4.97971 13.7674 5.33333Z" fill="#27A830"/>
<path d="M12.4341 18.0001V11.3334C12.4341 10.7134 12.4341 10.4041 12.3661 10.1494C12.2752 9.81057 12.0967 9.50161 11.8487 9.25353C11.6006 9.00546 11.2916 8.827 10.9528 8.73608C10.6968 8.66675 10.3861 8.66675 9.76746 8.66675M12.4341 18.0001H14.4341M12.4341 18.0001H10.4341" stroke="#27A830"/>
</g>
<defs>
<clipPath id="clip0_434_1379">
<rect width="24" height="24" fill="white" transform="translate(0.434082)"/>
</clipPath>
</defs>
</svg>
